<!DOCTYPE svg PUBLIC "-//W3C//DTD SVG 20010904//EN" "http://www.w3.org/TR/2001/REC-SVG-20010904/DTD/svg10.dtd">
<svg version="1.0" xmlns="http://www.w3.org/2000/svg" width="66px" height="66px" viewBox="0 0 660 660" preserveAspectRatio="xMidYMid meet">
<g id="layer101" fill="#00bc00" stroke="none">
 <path d="M190 643 c-63 -23 -151 -113 -173 -177 -23 -66 -23 -206 0 -272 23 -67 110 -154 177 -177 66 -23 206 -23 272 0 67 23 154 110 177 177 23 66 23 206 0 272 -23 67 -110 154 -177 177 -64 22 -214 22 -276 0z m223 -84 c53 -14 132 -93 146 -144 28 -103 8 -192 -59 -257 -97 -94 -243 -94 -340 0 -67 65 -87 154 -59 257 13 49 93 130 141 144 45 13 125 13 171 0z"/>
 <path d="M297 372 c-26 -28 -25 -232 1 -255 10 -10 25 -17 33 -17 31 0 39 24 39 112 l0 88 68 0 c96 0 138 33 94 73 -28 26 -212 24 -235 -1z"/>
 </g>

</svg>