<!DOCTYPE svg PUBLIC "-//W3C//DTD SVG 20010904//EN" "http://www.w3.org/TR/2001/REC-SVG-20010904/DTD/svg10.dtd">
<svg version="1.0" xmlns="http://www.w3.org/2000/svg" width="65px" height="62px" viewBox="0 0 650 620" preserveAspectRatio="xMidYMid meet">
<g id="layer101" fill="#00ba00" stroke="none">
 <path d="M5 607 c-3 -7 -4 -107 -3 -222 l3 -210 33 -3 32 -3 0 -69 c0 -106 -10 -100 163 -100 l151 0 43 42 43 42 0 84 c0 56 3 81 11 77 17 -11 49 26 49 57 0 28 1 28 60 28 l60 0 0 39 c0 26 -16 70 -53 142 l-53 104 -267 3 c-211 2 -269 0 -272 -11z m71 -68 c11 -23 13 -34 5 -42 -7 -7 -11 -60 -11 -139 0 -96 -3 -128 -12 -128 -10 0 -13 41 -13 170 0 94 3 170 7 170 4 0 15 -14 24 -31z m72 -146 c9 -17 9 -22 -3 -27 -11 -4 -15 2 -15 26 0 34 2 34 18 1z m272 -99 c0 -30 -2 -34 -14 -25 -10 8 -55 11 -145 9 -128 -3 -131 -3 -131 18 0 20 3 21 36 14 27 -6 37 -5 41 6 4 11 29 14 109 14 l104 0 0 -36z m-145 -84 c81 0 125 4 133 12 9 9 12 5 12 -21 0 -28 -2 -32 -14 -21 -11 8 -54 11 -146 8 l-130 -3 0 25 c0 19 3 21 12 12 8 -8 52 -12 133 -12z m-24 -90 l89 0 0 -40 0 -40 -105 0 -105 0 0 46 c0 38 3 45 16 40 9 -3 56 -6 105 -6z"/>
 </g>

</svg>